<svg width="26" height="27" viewBox="0 0 26 27" fill="none" xmlns="http://www.w3.org/2000/svg">
<path d="M11.5914 26.4261C11.7763 26.608 11.9958 26.7523 12.2375 26.8508C12.4792 26.9493 12.7384 27 13.0001 27C13.2617 27 13.5208 26.9493 13.7625 26.8508C14.0042 26.7523 14.2237 26.608 14.4086 26.4261L25.3515 15.6726C25.5472 15.5045 25.7055 15.2987 25.8169 15.068C25.9283 14.8372 25.9902 14.5864 25.9989 14.3312C26.0076 14.0759 25.9629 13.8217 25.8675 13.5841C25.7721 13.3466 25.6281 13.1308 25.4443 12.9502C25.2605 12.7696 25.041 12.628 24.7993 12.5343C24.5575 12.4405 24.2987 12.3965 24.039 12.4051C23.7793 12.4136 23.5241 12.4745 23.2893 12.584C23.0545 12.6934 22.845 12.8491 22.6739 13.0414L14.886 20.7061V1.85325C14.886 1.36174 14.6873 0.89036 14.3336 0.542807C13.9799 0.195254 13.5002 0 13.0001 0C12.4999 0 12.0202 0.195254 11.6665 0.542807C11.3129 0.89036 11.1142 1.36174 11.1142 1.85325V20.7061L3.32606 13.0414C3.155 12.8491 2.94555 12.6934 2.71074 12.584C2.47594 12.4745 2.22087 12.4136 1.96113 12.4051C1.70139 12.3965 1.4426 12.4405 1.20087 12.5343C0.959131 12.628 0.739471 12.7696 0.555704 12.9502C0.371937 13.1308 0.227932 13.3466 0.132512 13.5841C0.0370923 13.8217 -0.00763701 14.0759 0.00106424 14.3312C0.0097655 14.5864 0.071718 14.8372 0.183102 15.068C0.294486 15.2987 0.452988 15.5045 0.648641 15.6726L11.5914 26.4261Z" fill="#D5A439"/>
</svg>
