<svg width="40" height="47" viewBox="0 0 40 47" fill="none" xmlns="http://www.w3.org/2000/svg">
<path d="M0.890163 17.9524C0.828575 15.6658 1.27732 13.3912 2.21003 11.2625C3.14274 9.13386 4.54057 7.19404 6.32124 5.55726C8.1019 3.92049 10.2294 2.61984 12.5786 1.73178C14.9279 0.843729 17.4514 0.38623 20.0006 0.38623C22.5498 0.38623 25.0734 0.843729 27.4226 1.73178C29.7718 2.61984 31.8993 3.92049 33.68 5.55726C35.4607 7.19404 36.8585 9.13386 37.7912 11.2625C38.7239 13.3912 39.1727 15.6658 39.1111 17.9524C39.1111 29.3769 19.995 46.5288 19.995 46.5288C19.995 46.5288 0.890163 29.3769 0.890163 17.9524ZM12.0496 17.9524C12.0496 19.3668 12.5171 20.7494 13.3931 21.9253C14.2691 23.1012 15.5142 24.0175 16.9707 24.5583C18.4273 25.0991 20.03 25.2401 21.5759 24.9634C23.1218 24.6867 24.5415 24.0049 25.6554 23.004C26.7692 22.0032 27.5273 20.7284 27.8334 19.341C28.1396 17.9535 27.9802 16.5158 27.3755 15.2096C26.7707 13.9035 25.7477 12.7876 24.4359 12.0033C23.1241 11.2189 21.5826 10.8013 20.0062 10.8033C18.9594 10.802 17.9227 10.986 16.9554 11.3448C15.988 11.7036 15.1091 12.2302 14.3689 12.8943C13.6287 13.5584 13.0417 14.3471 12.6419 15.215C12.242 16.083 12.0369 17.0132 12.0384 17.9524H12.0496Z" fill="#343638"/>
</svg>
